<svg width="1277" height="198" viewBox="0 0 1277 198" fill="none" xmlns="http://www.w3.org/2000/svg">
<path d="M286.4 122.8C286.4 118.667 285.667 114.8 284.2 111.2C282.867 107.6 281 104.467 278.6 101.8C276.2 99.1333 273.4 97.0667 270.2 95.6C267 94 263.6 93.2 260 93.2C256.4 93.2 253 93.9333 249.8 95.4C246.6 96.8667 243.8 98.9333 241.4 101.6C239 104.267 237.067 107.4 235.6 111C234.267 114.6 233.6 118.533 233.6 122.8C233.6 126.933 234.267 130.8 235.6 134.4C237.067 137.867 239 140.933 241.4 143.6C243.8 146.133 246.6 148.133 249.8 149.6C253 151.067 256.4 151.8 260 151.8C263.6 151.8 267 151.067 270.2 149.6C273.4 148 276.2 145.933 278.6 143.4C281 140.733 282.867 137.667 284.2 134.2C285.667 130.6 286.4 126.8 286.4 122.8ZM312.8 174H287.8V163.2C283.933 167.467 279.267 170.733 273.8 173C268.467 175.133 262.667 176.2 256.4 176.2C249.6 176.2 243.2 174.8 237.2 172C231.2 169.2 225.933 165.4 221.4 160.6C217 155.667 213.467 150 210.8 143.6C208.267 137.067 207 130.067 207 122.6C207 115.133 208.267 108.133 210.8 101.6C213.467 94.9333 217.133 89.2 221.8 84.4C226.467 79.4667 232 75.6 238.4 72.8C244.933 69.8667 252.133 68.4 260 68.4C267.733 68.4 274.8 69.8667 281.2 72.8C287.733 75.6 293.333 79.4667 298 84.4C302.667 89.2 306.267 94.9333 308.8 101.6C311.467 108.133 312.8 115.133 312.8 122.6V174ZM326.047 148.4C329.514 148.667 332.647 148.6 335.447 148.2C338.38 147.667 340.78 146.467 342.647 144.6C343.98 143.4 345.18 141.267 346.247 138.2C347.314 135.133 347.847 129.867 347.847 122.4C347.847 119.067 347.98 115.6 348.247 112C348.514 108.4 349.114 104.867 350.047 101.4C350.98 97.8 352.314 94.3333 354.047 91C355.78 87.6667 358.18 84.6 361.247 81.8C369.647 73.5333 381.247 70 396.047 71.2V96.8C388.714 96 383.18 97.4667 379.447 101.2C378.78 101.867 378.114 102.667 377.447 103.6C376.914 104.4 376.38 105.6 375.847 107.2C375.447 108.8 375.047 110.8 374.647 113.2C374.38 115.6 374.247 118.667 374.247 122.4C374.247 125.867 374.114 129.467 373.847 133.2C373.58 136.8 372.98 140.467 372.047 144.2C371.114 147.8 369.78 151.333 368.047 154.8C366.314 158.133 363.98 161.2 361.047 164C356.78 168.133 351.714 171 345.847 172.6C339.98 174.067 333.38 174.533 326.047 174V148.4ZM455.066 173.8C447.466 174.6 440.799 174.133 435.066 172.4C429.332 170.667 424.532 167.867 420.666 164C416.799 160.133 413.866 155.4 411.866 149.8C409.866 144.067 408.866 137.667 408.866 130.6V44.8H435.266V71H453.866V94.4H435.266V130.8C435.266 138 436.866 143.067 440.066 146C443.399 148.933 448.399 150.2 455.066 149.8V173.8ZM527.538 93.8C519.138 92.3333 512.338 93.6 507.138 97.6C502.071 101.467 499.538 107.067 499.538 114.4V174H473.138V114.4C473.138 107.067 474.338 100.4 476.738 94.4C479.271 88.4 482.871 83.3333 487.538 79.2C492.204 75.0667 497.871 72.0667 504.538 70.2C511.338 68.3333 519.004 67.9333 527.538 69V93.8ZM588.488 152.2C591.954 152.2 595.221 151.533 598.288 150.2C601.354 148.733 604.021 146.733 606.288 144.2C608.688 141.533 610.554 138.4 611.888 134.8C613.221 131.2 613.888 127.2 613.888 122.8C613.888 118.4 613.221 114.333 611.888 110.6C610.554 106.867 608.688 103.667 606.288 101C604.021 98.3333 601.354 96.2667 598.288 94.8C595.221 93.3333 591.954 92.6 588.488 92.6C585.021 92.6 581.688 93.3333 578.488 94.8C575.421 96.2667 572.754 98.3333 570.488 101C568.221 103.667 566.421 106.867 565.088 110.6C563.754 114.333 563.088 118.4 563.088 122.8C563.088 127.2 563.754 131.2 565.088 134.8C566.421 138.4 568.221 141.533 570.488 144.2C572.754 146.733 575.421 148.733 578.488 150.2C581.688 151.533 585.021 152.2 588.488 152.2ZM588.488 68.4C595.688 68.4 602.421 69.8 608.688 72.6C614.954 75.2667 620.421 79.0667 625.088 84C629.888 88.8 633.621 94.5333 636.287 101.2C639.088 107.733 640.488 114.867 640.488 122.6C640.488 130.333 639.088 137.467 636.287 144C633.621 150.533 629.888 156.2 625.088 161C620.421 165.8 614.954 169.6 608.688 172.4C602.421 175.067 595.688 176.4 588.488 176.4C581.288 176.4 574.554 175.067 568.288 172.4C562.021 169.6 556.554 165.8 551.888 161C547.221 156.2 543.488 150.533 540.688 144C538.021 137.467 536.688 130.333 536.688 122.6C536.688 114.867 538.021 107.733 540.688 101.2C543.488 94.5333 547.221 88.8 551.888 84C556.554 79.0667 562.021 75.2667 568.288 72.6C574.554 69.8 581.288 68.4 588.488 68.4ZM815.508 174H789.108V113.8C789.108 112.333 788.908 110.533 788.508 108.4C788.108 106.133 787.241 103.933 785.908 101.8C784.574 99.6667 782.641 97.8667 780.108 96.4C777.574 94.9333 774.108 94.2 769.708 94.2C763.841 94.2 759.041 96 755.308 99.6C751.574 103.2 749.708 107.933 749.708 113.8V174H723.308V113.8C723.308 112.333 723.108 110.533 722.708 108.4C722.308 106.133 721.441 103.933 720.108 101.8C718.908 99.6667 717.041 97.8667 714.508 96.4C711.974 94.9333 708.508 94.2 704.108 94.2C698.108 94.2 693.241 96 689.508 99.6C685.908 103.2 684.108 107.933 684.108 113.8V174H657.708V114.4C657.708 107.867 658.774 101.8 660.908 96.2C663.174 90.6 666.308 85.7333 670.308 81.6C674.308 77.4667 679.174 74.2667 684.908 72C690.641 69.6 697.041 68.4 704.108 68.4C711.174 68.4 717.441 69.7333 722.908 72.4C728.508 74.9333 733.174 78.4667 736.908 83C740.774 78.4667 745.508 74.9333 751.108 72.4C756.708 69.7333 762.908 68.4 769.708 68.4C776.908 68.4 783.308 69.5333 788.908 71.8C794.641 74.0667 799.441 77.2667 803.308 81.4C807.308 85.4 810.308 90.2 812.308 95.8C814.441 101.4 815.508 107.6 815.508 114.4V174ZM912.181 122.8C912.181 118.667 911.448 114.8 909.981 111.2C908.648 107.6 906.781 104.467 904.381 101.8C901.981 99.1333 899.181 97.0667 895.981 95.6C892.781 94 889.381 93.2 885.781 93.2C882.181 93.2 878.781 93.9333 875.581 95.4C872.381 96.8667 869.581 98.9333 867.181 101.6C864.781 104.267 862.848 107.4 861.381 111C860.048 114.6 859.381 118.533 859.381 122.8C859.381 126.933 860.048 130.8 861.381 134.4C862.848 137.867 864.781 140.933 867.181 143.6C869.581 146.133 872.381 148.133 875.581 149.6C878.781 151.067 882.181 151.8 885.781 151.8C889.381 151.8 892.781 151.067 895.981 149.6C899.181 148 901.981 145.933 904.381 143.4C906.781 140.733 908.648 137.667 909.981 134.2C911.448 130.6 912.181 126.8 912.181 122.8ZM938.581 174H913.581V163.2C909.715 167.467 905.048 170.733 899.581 173C894.248 175.133 888.448 176.2 882.181 176.2C875.381 176.2 868.981 174.8 862.981 172C856.981 169.2 851.715 165.4 847.181 160.6C842.781 155.667 839.248 150 836.581 143.6C834.048 137.067 832.781 130.067 832.781 122.6C832.781 115.133 834.048 108.133 836.581 101.6C839.248 94.9333 842.915 89.2 847.581 84.4C852.248 79.4667 857.781 75.6 864.181 72.8C870.715 69.8667 877.915 68.4 885.781 68.4C893.515 68.4 900.581 69.8667 906.981 72.8C913.515 75.6 919.115 79.4667 923.781 84.4C928.448 89.2 932.048 94.9333 934.581 101.6C937.248 108.133 938.581 115.133 938.581 122.6V174ZM1006.63 173.8C999.028 174.6 992.361 174.133 986.628 172.4C980.895 170.667 976.095 167.867 972.228 164C968.361 160.133 965.428 155.4 963.428 149.8C961.428 144.067 960.428 137.667 960.428 130.6V44.8H986.828V71H1005.43V94.4H986.828V130.8C986.828 138 988.428 143.067 991.628 146C994.961 148.933 999.961 150.2 1006.63 149.8V173.8ZM1122.5 139.2C1119.43 150.933 1113.5 160.067 1104.7 166.6C1095.9 173.133 1085.23 176.4 1072.7 176.4C1064.97 176.4 1057.83 175 1051.3 172.2C1044.77 169.4 1039.17 165.6 1034.5 160.8C1029.83 155.867 1026.17 150.133 1023.5 143.6C1020.83 137.067 1019.5 130.067 1019.5 122.6C1019.5 115.133 1020.83 108.133 1023.5 101.6C1026.17 94.9333 1029.83 89.2 1034.5 84.4C1039.17 79.4667 1044.77 75.6 1051.3 72.8C1057.83 69.8667 1064.97 68.4 1072.7 68.4C1085.23 68.4 1095.83 71.6667 1104.5 78.2C1113.3 84.7333 1119.23 93.8667 1122.3 105.6H1094.1C1092.23 102.133 1089.37 99.1333 1085.5 96.6C1081.77 93.9333 1077.5 92.6 1072.7 92.6C1069.1 92.6 1065.7 93.4 1062.5 95C1059.3 96.6 1056.5 98.8 1054.1 101.6C1051.7 104.267 1049.77 107.467 1048.3 111.2C1046.97 114.8 1046.3 118.667 1046.3 122.8C1046.3 126.8 1046.97 130.6 1048.3 134.2C1049.77 137.8 1051.7 141 1054.1 143.8C1056.5 146.467 1059.3 148.6 1062.5 150.2C1065.7 151.667 1069.1 152.4 1072.7 152.4C1077.63 152.4 1082.03 151.133 1085.9 148.6C1089.77 145.933 1092.57 142.8 1094.3 139.2H1122.5ZM1231.96 174H1205.56V113.8C1205.56 112.333 1205.36 110.467 1204.96 108.2C1204.56 105.933 1203.69 103.8 1202.36 101.8C1201.02 99.6667 1199.09 97.8667 1196.56 96.4C1194.02 94.9333 1190.62 94.2 1186.36 94.2C1180.36 94.2 1175.49 96 1171.76 99.6C1168.16 103.2 1166.36 107.933 1166.36 113.8V174H1139.76V25.2H1166.36V76.4C1169.69 73.8667 1173.29 71.9333 1177.16 70.6C1181.16 69.1333 1185.42 68.4 1189.96 68.4C1196.22 68.4 1201.96 69.5333 1207.16 71.8C1212.36 73.9333 1216.76 77 1220.36 81C1224.09 84.8667 1226.96 89.6 1228.96 95.2C1230.96 100.8 1231.96 107 1231.96 113.8V174Z" fill="#F06F5C"/>
<path d="M123.316 41.5424C108.426 21.5026 91.1155 9.19416 82.7964 3.2793C81.6843 2.48846 80.5881 1.6748 79.4742 0.887826C78.5794 0.25554 77.6058 -0.170624 76.4922 0.0664347C74.6064 0.467849 73.3989 2.50779 73.9746 4.35167C82.175 30.5971 77.2632 56.0011 58.4975 83.9168C53.1426 72.8079 50.3331 62.4423 50.3331 53.6912C50.3331 51.6741 48.4848 50.0765 46.4877 50.3712C45.5114 50.5155 44.8664 51.0994 44.1476 51.7131C43.3166 52.422 42.4606 53.1018 41.6095 53.7863C30.2295 62.9442 0 87.2692 0 127.524C0 146.198 7.95449 163.924 22.3976 177.435C36.3671 190.504 55.1107 198 73.8223 198C98.3469 198 118.457 190.863 131.979 177.36C144.423 164.934 151 147.701 151 127.524C151 95.1943 141.686 66.2661 123.316 41.5424Z" fill="#F06F5C"/>
</svg>
